<svg xmlns="http://www.w3.org/2000/svg" viewBox="0 0 1615.78 584.08"><defs><style>.cls-1{fill:#ecf3fe;}.cls-2{fill:#f89646;}.cls-3{fill:#ec7d2b;}.cls-4{fill:#385689;}.cls-5{fill:#233862;}.cls-6{fill:#2e3552;}.cls-7{fill:#e48538;}.cls-8{fill:#466aa4;}.cls-9{fill:#8d3900;}.cls-10{fill:#b7dfae;}.cls-11{fill:#fefefe;}.cls-12{fill:#d3dff1;}.cls-13{fill:#2b478a;}.cls-14{fill:#dee8f8;}.cls-15{fill:#bb3f3f;}.cls-16{fill:#feb17d;}</style></defs><g id="Warstwa_2" data-name="Warstwa 2"><g id="Warstwa_1-2" data-name="Warstwa 1"><path class="cls-1" d="M311,182c-.6-10.52-4.08-20.43-6.42-30.57-5.9-25.52-4.91-50.43,7.4-74,9.46-18.12,24-31.62,41.24-42.31,26.23-16.32,55.4-24.55,85.46-29.71C452.8,3,467.18,1.8,481.58.89A445.63,445.63,0,0,1,528.94.41a566.15,566.15,0,0,1,57.73,5.52,617.85,617.85,0,0,1,68.06,13.71C677.72,25.72,700,34,721.9,43.13c24.55,10.23,48.54,21.69,72.53,33.17,30.42,14.56,60.61,29.67,92,42.08,22.41,8.85,45.31,16.23,69.22,19.59a134.4,134.4,0,0,0,71.6-9.4,657.08,657.08,0,0,1,125.46-38.1,446.6,446.6,0,0,1,46.63-6.53c16.09-1.45,32.17-2.41,48.24-1.66,24.66,1.16,49.06,4.55,72.85,11.58A390.16,390.16,0,0,1,1388.37,121c23.54,12.1,45.26,27,65.76,43.75,10.54,8.63,20.39,18,30.59,27,4.83,4.25,8.79,9.49,13.14,14.28-2.16.06-4.32.16-6.48.16q-288.12,0-576.23.09a44.16,44.16,0,0,0-35.06,16.66c-3.35,4.09-7,4.69-11.24,5.23-18.68,2.36-34.25,9.11-40.74,28.7-.44,1.33-.44,2.54-2.32,2.33-5.6-.62-7,3.48-7.79,7.57-3.26,16.73-6.35,33.5-9.39,50.27-.63,3.47.35,6.11,4.33,7.2,5.11,1.4,10.38.84,15.53,1.83,3.86.73,6.87-1.32,7.37-5.4.9-7.31,1.12-14.72,2.16-22,1.21-8.42,1.25-16.95,2.7-25.36.58-3.37,2-8.1-.94-10.42-4.78-3.71-2.34-7-.84-10.56a30.71,30.71,0,0,1,11.58-14.16c7-4.64,14.92-6.32,23.63-7-1.41,4.15-3.88,7.17-4,11a27.3,27.3,0,0,0-1,2.74c-5.37,20.71-11,41.38-16,62.17-3.7,15.3-7.82,30.53-10.31,46.1-4.87,14.74-5.78,30.16-6.56,45.39-.8,15.84-2.24,31.75-1.12,47.66-.1,7.64-.78,15.3.8,22.88-4.63.76-6,3.77-6,8.11.11,9.61.25,19.23,0,28.83-.17,5.3,1.54,8.5,7,9.16.29,4.93.79,9.86,1.21,14.76A21.83,21.83,0,0,0,860,550.08c30.49,0,61,0,91.47,0q37.24,0,74.47-.15h11a56.05,56.05,0,0,0,12.48,18.34c4.87,4.68,10.72,7.53,16.41,10.78l-237.86,0c-.66,0-1.32-.1-2-.16-4.76-3.93-10.62-2.48-16.91-3,1.72-1.27,2.78-2,3.75-2.79,4.3-3.65,9.55-6,13.6-10,2.14-2.11,1.94-4.7,1.21-7s-3.13-2-5.15-2.14c-3.29-.29-5.61,1.07-7.76,3.45-3.33,3.66-4.87,8.27-7.2,12.46-.88,1.59-.48,4-3.58,5.06.74-2.21,1.34-3.83,1.82-5.49,2.51-8.73,8.12-15.84,12.25-23.73,1.41-2.68,2.25-6.11-.54-8.17-3-2.23-6.42-2-9.49.86-3.35,3.11-5,7-6,11.26-1.42,5.93-3.06,11.81-3.25,18-.1,3.18-1.14,6-5.7,5.44-3.72-.44-6.56,1.18-6.16,5.73H751c-.29-8.23-2.62-10.76-10.62-13-4.78-1.33-9.53-.47-14.27-.91.12-12.76-.13-25.5.62-38.29,1.3-21.88-.33-43.84,1.07-65.78,1.29-20.38.16-40.84.87-61.28,1-28.06.33-56.18,1.29-84.27.47-13.76-.46-27.51.79-41.31,1-10.9.12-22,.07-33l.27-9,16.49,0c6.4,0,8.34-1.86,8.36-8.15q0-16.25,0-32.49c0-7.88-1.44-9.35-9.08-9.35H362c-2,0-4,.1-6,.16Z"/><path class="cls-2" d="M835.08,446.15c-1.12-15.91.32-31.82,1.12-47.66.78-15.23,1.69-30.65,6.56-45.39.13,2.2,1.73,2,3.24,2,3.5,0,7,.12,10.49-.05,2.52-.12,4.08.65,3.37,3.3-1.26,4.73-.53,9.56-1,14.31-1.7,16.05-3.42,32.1-3.86,48.24-.23,8.51,1.6,10.17,10.07,10.18H940.5c9.43,0,11.76-1.83,12.34-11.17,1.2-19.13,2.16-38.27,3-57.42.34-7.39.11-7.4,7.59-7.4h604.23c2.93,17.37,2.39,34.91,2.07,52.39a256.37,256.37,0,0,1-5.81,48.65,22.6,22.6,0,0,0-.26,3l-7,0H844.19c-1.5,0-3-.1-4.49,0-2.77.23-3.8-.86-3.86-3.7C835.78,452.33,836.84,449.1,835.08,446.15Z"/><path class="cls-3" d="M835.08,446.15c1.76,3,.7,6.18.76,9.26.06,2.84,1.09,3.93,3.86,3.7,1.48-.13,3,0,4.49,0h712.5l7,0c-2,8.49-3.92,17-5.84,25.49-.15.67-.27,1.26-1,1.55-3.93-1.71-7.4-4.23-11.4-5.89a58.36,58.36,0,0,0-74.39,27.31c-6.91,13.54-8,27.71-4.21,42.33-1.32.05-2.65.15-4,.15q-161,0-322.05,0c-1.33,0-2.66-.1-4-.15,3.16-8,2.89-16.47,1.74-24.5-4-28.16-32-52.36-62.82-48.46-16.9,2.14-30.37,9.7-40.28,23.24-8.62,11.79-12.86,25.06-10.64,39.91.48,3.25.72,6.54,1.07,9.81q-37.23.08-74.47.15c-30.49,0-61,0-91.47,0a21.83,21.83,0,0,1-21.9-20.19c-.42-4.9-.92-9.83-1.21-14.76,2.83,0,5.67,0,8.5,0,5.51-.15,7.54-2.15,7.55-7.51,0-10.49-.11-21,.06-31.48.08-4.77-2.46-6.66-6.62-7-3.48-.25-7-.08-10.49-.09C834.3,461.45,835,453.79,835.08,446.15ZM927,493.09c5,0,10,0,15,0,3.49,0,6.1-1.53,5.84-5.21-.23-3.35-2-5.88-6.08-5.84-9.48.08-19,.12-28.45,0-3.91-.06-5.66,2.17-5.69,5.44,0,3.53,1.81,5.85,5.94,5.68C918,493,922.46,493.1,927,493.09Z"/><path class="cls-4" d="M1567.68,355.1H963.45c-7.48,0-7.25,0-7.59,7.4-.86,19.15-1.82,38.29-3,57.42-.58,9.34-2.91,11.17-12.34,11.17H865c-8.47,0-10.3-1.67-10.07-10.18.44-16.14,2.16-32.19,3.86-48.24.51-4.75-.22-9.58,1-14.31.71-2.65-.85-3.42-3.37-3.3-3.49.17-7,0-10.49.05-1.51,0-3.11.19-3.24-2,2.49-15.57,6.61-30.8,10.31-46.1,5-20.79,10.63-41.46,16-62.17a27.3,27.3,0,0,1,1-2.74h655.86a95.42,95.42,0,0,1,9,15c-3.83,0-7.66,0-11.48,0-5.72.13-9.56,3.68-9.58,9.25q-.14,32.21,0,64.4c0,5.79,3.93,9.31,9.86,9.32l41.94,0Q1566.69,347.62,1567.68,355.1ZM903,423.07c10.32,0,20.65.06,31,0,7-.05,10.68-3.13,10.85-9.58.27-9.77,1.35-19.48,1.94-29.21q1.35-22,3.08-44.05c1-12.54.83-25.19,2.3-37.66.8-6.76.22-13.53,1.58-20.27,1.7-8.48-1.78-13.44-8.92-14.12-13-1.24-26.09-1.76-39.19-.13-16.08,2-25.83,11.63-32,25.72-3.6,8.24-3.11,17.14-3.9,25.87-1.33,14.8-2.7,29.61-3.83,44.43-.71,9.38-2.13,18.71-2.69,28.1-.4,6.61-1.75,13.15-1.29,19.83.53,7.82,3.77,11.06,11.63,11.09C883.36,423.1,893.18,423.07,903,423.07Zm526.23-83q30.72,0,61.45,0c4.91,0,9.07-3.63,9.1-8.54q.21-32.46,0-64.93c-.06-6.12-3.87-9.48-9.88-9.48q-60.45-.06-120.89,0c-6.36,0-10.09,3.57-10.11,9.74q-.09,31.71,0,63.43c0,6.22,3.72,9.8,9.9,9.8Zm-154.45,0h59c8.1,0,11.11-3,11.11-11q0-30.22,0-60.46c0-8.32-3.15-11.51-11.38-11.51h-118c-8.06,0-11.57,3.26-11.61,11.48q-.2,30.48,0,61c0,7.22,3.61,10.53,10.89,10.54Zm-157.36,0h60c8,0,10.49-2.42,10.49-10.31q0-30.72,0-61.46c0-8-3.16-11.2-11-11.21H1057.94c-7.38,0-10,2.57-10,9.77q0,31.74,0,63.46c0,7.18,2.66,9.75,10,9.75Zm-84.52-40.78q0-16.49,0-33c0-7.35-1.82-9.21-9-9.22h-51c-6,0-8,1.9-8,8.06q0,34,0,67.95c0,5,2,6.95,6.92,7q27,.06,54,0c5.24,0,7.07-1.92,7.09-7.3C1032.93,321.63,1032.9,310.48,1032.9,299.32Z"/><path class="cls-5" d="M1525.94,242.09H870.08c.17-3.82,2.64-6.84,4-11-8.71.67-16.59,2.35-23.63,7a30.71,30.71,0,0,0-11.58,14.16c-1.5,3.6-3.94,6.85.84,10.56,3,2.32,1.52,7.05.94,10.42-1.45,8.41-1.49,16.94-2.7,25.36-1,7.29-1.26,14.7-2.16,22-.5,4.08-3.51,6.13-7.37,5.4-5.15-1-10.42-.43-15.53-1.83-4-1.09-5-3.73-4.33-7.2,3-16.77,6.13-33.54,9.39-50.27.79-4.09,2.19-8.19,7.79-7.57,1.88.21,1.88-1,2.32-2.33,6.49-19.59,22.06-26.34,40.74-28.7,4.25-.54,7.89-1.14,11.24-5.23a44.16,44.16,0,0,1,35.06-16.66q288.12-.18,576.23-.09c2.16,0,4.32-.1,6.48-.16A224.69,224.69,0,0,1,1525.94,242.09Z"/><path class="cls-1" d="M131.17,362.1c6.39-5,12.72-10,19.19-14.88,13.42-10.09,28-18.37,42.57-26.58q8.46-4.75,16.89-9.54c.55,10.26.14,20.52,1,30.81,1.18,14,.31,28.17.86,42.29.75,19.23.75,38.51,1.34,57.77.3,9.93.59,19.92.64,29.8.12,24.77,2,49.5,1.17,74.27-3.25,2.58-5.07,1.73-5.8-2.29a44.29,44.29,0,0,0-1.59-5.7c-.66-2-2.3-2.29-4-1.82-2.09.57-1.66,2.52-1.22,3.72a77.7,77.7,0,0,0,3.6,7.62c.72,1.46,1.11,2.68-.91,3.59-1.58.71-2.76,1-3.75-.76-2-3.51-5.26-5.95-8.11-8.7-3-2.91-6.64-4.93-11.09-4.59-1.52.12-3.05.53-3.7,2s.25,2.79,1.31,4c3.72,4.22,8.65,6.57,13.56,9,5.57,2.74,5.56,2.77,1.32,7l-1.76,1.76c-5.21,5.15-9.41,11-11.71,18H138c-1.42-6.69.05-13.69-1.32-20.18-1.16-5.52,2.26-12.58-4.51-16.67-.4-.24-.2-1.58-.17-2.4.71-24.59-1.11-49.13-1-73.71Q131.16,414,131.17,362.1Z"/><path class="cls-1" d="M44,578.9A149.68,149.68,0,0,1,31.87,534c-2.54-21.85,1.27-42.56,9.24-62.72,6.89-17.44,17.17-32.9,28.74-47.52a330.29,330.29,0,0,1,25.5-28.56,345.77,345.77,0,0,1,26.48-24.15c0,10.59-.52,21.19-.55,31.73-.08,28.89-1.62,57.74-1.22,86.62.23,16.75-1.78,33.44-1.06,50.2,0,.49,0,1,0,1.49,0,1.16-.42,1.9-1.71,1.88-3.54,0-3.11,2.47-3.35,4.84-1.06,10.31-.32,20.73-1.93,31l-17.94.06a4,4,0,0,0-3-3.65c-1.95-.59-2.23-1.45-1.62-3.27.75-2.21,1.48-4.91-1.72-5.72s-5.71,0-7,3.7c-.64,1.85,0,4.24-2.18,6.24-1-3.86-1.68-7.2-2.63-10.47-2.41-8.28-5-16.5-10.94-23.1-3.55-4-10.06-6.18-11.81-3.88-3,4-.41,7.92,1.58,11.43a82.45,82.45,0,0,0,10,14.13c.79.89,1.72,1.9.91,3s-1.85.14-2.63-.32c-2.16-1.27-4.5-.92-6.8-.95-1.24,0-2.46.28-2.82,1.56-.41,1.43.77,2,1.85,2.52l11.3,5.44c-3.81,1.13-7.63.81-10.58,3.3Z"/><path class="cls-3" d="M311,182l45,.33c1.14,1.87,3.1,2.33,5,3q25.45,8.63,50.88,17.31t51.35,15.77c16.27,4.44,32.48,9.06,48.72,13.6l-95.31.16c-8.33,0-8.33,0-8.78,8-3.88,1.86-5.32,5.83-7.74,8.95-.06-4.48-.23-9-.14-13.46.05-2.39-.36-3.56-3.2-3.54q-46.39.21-92.78.22-33.68-.09-67.33-.16c-9.28,0-9.28,0-9.79,9-6.57,2.16-12.06,6.24-17.75,10C207,246.15,208,241,208,235.89c0-3.17-1-4-4-3.82-3.47.24-7,0-10.47.06-4.5.05-6.62-2.14-6.61-6.63,0-12.14,0-24.28,0-36.41,0-5.1,2-7,7.26-7l111.24,0C307.32,182.12,309.15,182,311,182Z"/><path class="cls-6" d="M44,578.9H94.05l17.94-.06,26,0h84l31.87.12h54.22l62.85-.19,3.18,0,34.76,0L453,579h46.85l14,.09,31.09,0,60.86-.06c7.67,0,15.33.14,23,0,2.52,0,6.74,1.33,7.24-.94.7-3.18-4-2.2-5.89-3.8a2.37,2.37,0,0,1-.3-.39c0-.58,0-1.16,0-1.74,6-.34,12.07.49,18-1,3.31,3.1,8.33,2.7,11.6,5.23,2.74,2.14,5.2,3,8.41,2.7h6.22l7.86-.19,3.18,0,34.69.05,6.16,0H826c.66.06,1.32.16,2,.16l237.86,0H1520c30.33,0,60.65,0,91,.14,1.61,0,4.79-1.89,4.84,2,0,3.74-3,2.73-5.12,2.89-.66,0-1.33,0-2,0H7.08c-1.16,0-2.33,0-3.5,0-2.14.1-3.52-.55-3.58-3-.07-3,2.16-1.94,3.52-1.95C17,579,30.51,579,44,578.9Z"/><path class="cls-7" d="M222,578.9h-6c.53-11-.62-21.91-1.15-32.86.86-24.77-1.05-49.5-1.17-74.27,0-9.88-.34-19.87-.64-29.8-.59-19.26-.59-38.54-1.34-57.77-.55-14.12.32-28.26-.86-42.29-.86-10.29-.45-20.55-1-30.81.32-17.53-1.59-35-.84-52.56.11-2.49.09-5,.13-7.46,5.69-3.74,11.18-7.82,17.75-10,0,2.49.1,5,.13,7.46.16,17.86-.08,35.7-.83,53.55-.9,16.9-.49,33.83-.83,50.74q-.89,44.32-1.4,88.69c-.13,12.09,0,24.17-.69,36.29-1.23,22,.58,44.14-1.1,66.19Q222.07,561.46,222,578.9Z"/><path class="cls-7" d="M138,578.9l-26,0c1.61-10.27.87-20.69,1.93-31,.24-2.37-.19-4.89,3.35-4.84,1.29,0,1.72-.72,1.71-1.88,0-.5,0-1,0-1.49-.72-16.76,1.29-33.45,1.06-50.2-.4-28.88,1.14-57.73,1.22-86.62,0-10.54.58-21.14.55-31.73l2-104.94h7.26q0,48,0,96Q131.08,414,131,465.94c-.08,24.58,1.74,49.12,1,73.71,0,.82-.23,2.16.17,2.4,6.77,4.09,3.35,11.15,4.51,16.67C138.06,565.21,136.59,572.21,138,578.9Z"/><path class="cls-8" d="M1565.68,340.13l-41.94,0c-5.93,0-9.83-3.53-9.86-9.32q-.12-32.2,0-64.4c0-5.57,3.86-9.12,9.58-9.25,3.82-.08,7.65,0,11.48,0a233.46,233.46,0,0,1,28,71.73C1563.71,332.62,1564.75,336.36,1565.68,340.13Z"/><path class="cls-5" d="M1520,579h-13.22c-1.11-1.76-3.14-2.1-4.78-2.88-11.48-5.4-19-14.3-23.25-26.06-7.81-20.63.84-42.59,16-54,18.06-13.54,43.77-11.63,59,1.94-2.42,8.5-4.74,17-8.8,24.95-2.9-8.47-9.66-12.53-17.74-13.82-9.58-1.52-18.13,1.62-24.08,9.59-7,9.39-6.83,20.8-.14,30.45,5.41,7.79,16.58,11.46,27,8.86Q1524.94,568.56,1520,579Z"/><path class="cls-8" d="M1529.91,558.1c-10.41,2.6-21.58-1.07-27-8.86-6.69-9.65-6.86-21.06.14-30.45,6-8,14.5-11.11,24.08-9.59,8.08,1.29,14.84,5.35,17.74,13.82-1.19,5.93-4,11.31-6.3,16.78C1535.93,546,1534,552.57,1529.91,558.1Z"/><path class="cls-9" d="M1553.68,498.07c-15.2-13.57-40.91-15.48-59-1.94-15.16,11.36-23.81,33.32-16,54l-11.83-.17c-3.76-14.62-2.7-28.79,4.21-42.33a58.36,58.36,0,0,1,74.39-27.31c4,1.66,7.47,4.18,11.4,5.89C1556.46,490.31,1554.89,494.14,1553.68,498.07Z"/><path class="cls-2" d="M131.13,266.15h-7.26c-10,0-20-.13-30,0-4.26.06-5.93-1.62-5.92-5.9q.15-45.73,0-91.48c0-3.38,1-4.73,4.55-4.71q32.5.18,65,0c3.58,0,4.57,1.33,4.56,4.71q-.13,45.75,0,91.48c0,4.28-1.65,6-5.91,5.9C147.8,266,139.47,266.14,131.13,266.15ZM158,215q0-20,0-40c0-5.67-1-6.82-6.51-6.83-17.65-.06-35.31,0-53,0-4.29,0-6.63,1.36-6.6,6.35.18,26.82.14,53.63,0,80.44,0,4.44,1.48,6.3,6.07,6.26q27-.23,54,0c4.59,0,6.13-1.82,6.08-6.26C157.89,241.6,158,228.28,158,215Z"/><path class="cls-2" d="M511.93,232c-16.24-4.54-32.45-9.16-48.72-13.6q-25.92-7.08-51.35-15.77T361,185.28c-1.9-.65-3.86-1.11-5-3,2-.06,4-.16,6-.16H746.85c7.64,0,9.08,1.47,9.08,9.35q0,16.25,0,32.49c0,6.29-2,8.15-8.36,8.15l-16.49,0H711.8l-180.39,0C524.92,232.11,518.42,232,511.93,232Z"/><path class="cls-5" d="M1098,579h-32.22c-5.69-3.25-11.54-6.1-16.41-10.78a56.05,56.05,0,0,1-12.48-18.34,52.54,52.54,0,0,1-1.76-23.58c4-23.08,23.46-39.3,46.86-39.45,24.8-.15,47.19,21.12,47,46.9,0,5.53-1.84,10.7-2.1,16.13-4.07,6.76-7.4,13.91-13.51,19.41C1108.72,573.5,1102.79,575.28,1098,579Zm-41.11-45.23c-.72,13.39,10.75,25.42,25,25.3A25,25,0,0,0,1107,534.23c0-14.41-10.94-25.23-25.58-25.23A24.72,24.72,0,0,0,1056.9,533.79Z"/><path class="cls-7" d="M725.94,578.9l-6.16,0q0-7.41-.11-14.82c-1.63-4.9-.17-10-.9-14.94,0-11.08-.33-22.16-.53-33.22-.37-20.54-1.13-41.08-1.34-61.63-.18-17.56-.69-35.11-1.06-52.66,0-.16-.05-.33-.07-.49.26-5.63-.34-11.2-.66-16.8-.87-15.4-.62-30.85-.87-46.27-.44-26.41-2-52.81-1.29-79.23,0-1.69,0-3.32-1.18-4.68.1-1,.2-2,.29-3,6.24-3.34,11.85-7.86,18.74-10,.05,11,.91,22.06-.07,33-1.25,13.8-.32,27.55-.79,41.31-1,28.09-.32,56.21-1.29,84.27-.71,20.44.42,40.9-.87,61.28-1.4,21.94.23,43.9-1.07,65.78-.75,12.79-.5,25.53-.62,38.29Z"/><path class="cls-9" d="M1126.89,549.9c.26-5.43,2.06-10.6,2.1-16.13.2-25.78-22.19-47-47-46.9-23.4.15-42.88,16.37-46.86,39.45a52.54,52.54,0,0,0,1.76,23.58h-11c-.35-3.27-.59-6.56-1.07-9.81-2.22-14.85,2-28.12,10.64-39.91,9.91-13.54,23.38-21.1,40.28-23.24,30.77-3.9,58.82,20.3,62.82,48.46,1.15,8,1.42,16.52-1.74,24.5Z"/><path class="cls-2" d="M835.88,469c3.5,0,7-.16,10.49.09,4.16.31,6.7,2.2,6.62,7-.17,10.49,0,21-.06,31.48,0,5.36-2,7.36-7.55,7.51-2.83.08-5.67,0-8.5,0-5.48-.66-7.19-3.86-7-9.16.3-9.6.16-19.22,0-28.83C829.86,472.8,831.25,469.79,835.88,469Z"/><path class="cls-10" d="M826,578.9H786.88c-.4-4.55,2.44-6.17,6.16-5.73,4.56.55,5.6-2.26,5.7-5.44.19-6.2,1.83-12.08,3.25-18,1-4.23,2.61-8.15,6-11.26,3.07-2.84,6.5-3.09,9.49-.86,2.79,2.06,1.95,5.49.54,8.17-4.13,7.89-9.74,15-12.25,23.73-.48,1.66-1.08,3.28-1.82,5.49,3.1-1.07,2.7-3.47,3.58-5.06,2.33-4.19,3.87-8.8,7.2-12.46,2.15-2.38,4.47-3.74,7.76-3.45,2,.18,4.46,0,5.15,2.14s.93,4.86-1.21,7c-4,4-9.3,6.32-13.6,10-1,.82-2,1.52-3.75,2.79C815.33,576.42,821.19,575,826,578.9Z"/><path class="cls-10" d="M725.94,578.9l.15-13.89c4.74.44,9.49-.42,14.27.91,8,2.23,10.33,4.76,10.62,13Z"/><path class="cls-3" d="M730.8,241.12c-6.89,2.12-12.5,6.64-18.74,10q-.12-9.48-.26-18.95h19.27Z"/><path class="cls-1" d="M1126.89,549.9h10c1.33.05,2.66.15,4,.15q161,0,322.05,0c1.33,0,2.66-.1,4-.15l11.83.17c4.3,11.76,11.77,20.66,23.25,26.06,1.64.78,3.67,1.12,4.78,2.88H1098c4.78-3.74,10.71-5.52,15.37-9.71C1119.49,563.81,1122.82,556.66,1126.89,549.9Z"/><path class="cls-2" d="M927,493.09c-4.49,0-9-.14-13.47.05-4.13.17-6-2.15-5.94-5.68,0-3.27,1.78-5.5,5.69-5.44,9.48.14,19,.1,28.45,0,4.07,0,5.85,2.49,6.08,5.84.26,3.68-2.35,5.2-5.84,5.21C936.93,493.1,931.94,493.09,927,493.09Z"/><path class="cls-8" d="M903,423.07c-9.82,0-19.64,0-29.46,0-7.86,0-11.1-3.27-11.63-11.09-.46-6.68.89-13.22,1.29-19.83.56-9.39,2-18.72,2.69-28.1,1.13-14.82,2.5-29.63,3.83-44.43.79-8.73.3-17.63,3.9-25.87,6.16-14.09,15.91-23.71,32-25.72,13.1-1.63,26.14-1.11,39.19.13,7.14.68,10.62,5.64,8.92,14.12-1.36,6.74-.78,13.51-1.58,20.27-1.47,12.47-1.33,25.12-2.3,37.66q-1.71,22-3.08,44.05c-.59,9.73-1.67,19.44-1.94,29.21-.17,6.45-3.86,9.53-10.85,9.58C923.65,423.13,913.32,423.07,903,423.07Z"/><path class="cls-8" d="M1429.23,340.1h-60.44c-6.18,0-9.89-3.58-9.9-9.8q-.09-31.71,0-63.43c0-6.17,3.75-9.73,10.11-9.74q60.45,0,120.89,0c6,0,9.82,3.36,9.88,9.48q.27,32.46,0,64.93c0,4.91-4.19,8.54-9.1,8.54Q1460,340.14,1429.23,340.1Z"/><path class="cls-8" d="M1274.78,340.1h-60c-7.28,0-10.86-3.32-10.89-10.54q-.15-30.48,0-61c0-8.22,3.55-11.48,11.61-11.48h118c8.23,0,11.37,3.19,11.38,11.51q0,30.22,0,60.46c0,8.05-3,11-11.11,11Z"/><path class="cls-8" d="M1117.42,340.1H1058c-7.39,0-10-2.57-10-9.75q0-31.73,0-63.46c0-7.2,2.65-9.76,10-9.77h118.93c7.85,0,11,3.25,11,11.21q0,30.74,0,61.46c0,7.89-2.47,10.31-10.49,10.31Z"/><path class="cls-8" d="M1032.9,299.32c0,11.16,0,22.31,0,33.47,0,5.38-1.85,7.29-7.09,7.3q-27,.06-54,0c-5,0-6.91-2-6.92-7q0-34,0-67.95c0-6.16,2-8.05,8-8.06h51c7.2,0,9,1.87,9,9.22Q1032.92,282.84,1032.9,299.32Z"/><path class="cls-10" d="M214.83,546c.53,11,1.68,21.87,1.15,32.86H181c2.3-7,6.5-12.86,11.71-18l1.76-1.76c4.24-4.25,4.25-4.28-1.32-7-4.91-2.41-9.84-4.76-13.56-9-1.06-1.19-2-2.39-1.31-4s2.18-1.93,3.7-2c4.45-.34,8.07,1.68,11.09,4.59,2.85,2.75,6.08,5.19,8.11,8.7,1,1.73,2.17,1.47,3.75.76,2-.91,1.63-2.13.91-3.59a77.7,77.7,0,0,1-3.6-7.62c-.44-1.2-.87-3.15,1.22-3.72,1.73-.47,3.37-.19,4,1.82a44.29,44.29,0,0,1,1.59,5.7C209.76,547.77,211.58,548.62,214.83,546Z"/><path class="cls-10" d="M94.05,578.91H56c3-2.49,6.77-2.17,10.58-3.3l-11.3-5.44c-1.08-.52-2.26-1.09-1.85-2.52.36-1.28,1.58-1.57,2.82-1.56,2.3,0,4.64-.32,6.8.95.78.46,1.86,1.4,2.63.32s-.12-2.14-.91-3a82.45,82.45,0,0,1-10-14.13c-2-3.51-4.61-7.42-1.58-11.43,1.75-2.3,8.26-.1,11.81,3.88,5.89,6.6,8.53,14.82,10.94,23.1,1,3.27,1.67,6.61,2.63,10.47,2.16-2,1.54-4.39,2.18-6.24,1.28-3.74,3.84-4.51,7-3.7s2.47,3.51,1.72,5.72c-.61,1.82-.33,2.68,1.62,3.27A4,4,0,0,1,94.05,578.91ZM69.77,571l-.26-.38-.29.68c.13,0,.31.15.36.11A1.29,1.29,0,0,0,69.77,571Z"/><path class="cls-1" d="M222.14,544c1.68-22-.13-44.18,1.1-66.19.68-12.12.56-24.2.69-36.29q.49-44.34,1.4-88.69c.34-16.91-.07-33.84.83-50.74,2-.08,3.22-1.63,4.76-2.52,21.52-12.42,42.65-25.4,58.82-44.8,5.7-6.85,11.21-13.91,14.24-22.5q46.38-.07,92.78-.22c2.84,0,3.25,1.15,3.2,3.54-.09,4.49.08,9,.14,13.46-.08,1.7-.15,3.39-.22,5.08l-61.48,0c-6.42,0-6.42,0-6.42,6.53V515a159.9,159.9,0,0,0-20.05,1q0-7.74.05-15.48c0-14.52-.19-29-2.17-43.45,1.74-2.33,2.18-4.92,2.24-7.81a103.22,103.22,0,0,0-1.21-17.13c1.64-2.95,5-3.88,7.18-6.21,2.92-1.65,4.91-4.33,7.17-6.69a5.54,5.54,0,0,0,1.68-5.39c-1.53-5.26-3.18-10.47-4.79-15.7,3-4.79,3.76-10.3,4.78-15.65.84-4.4,0-8.5-4.73-10.77-5.17-2.48-9.07-6.61-12.69-10.86-2.62-3.07-5.11-3.64-8.41-1.63a26.54,26.54,0,0,0-12-4.19,7.53,7.53,0,0,1,1.39-5.66c2.19-2.78,2.61-6,2.72-9.32,1.8-3.46,2-7.35,2.77-11.05a7.58,7.58,0,0,0-4.46-8.58c-5.2-2.49-11-1.85-16.54-1.07a8.69,8.69,0,0,0-6.92,5.48c-2.45,5.89.15,10.95,1.88,16.22-.72,5.35,4.52,9.48,3.1,15-.5,0-1,0-1.5,0-6.44.27-8.5,1.91-10.59,8a7.12,7.12,0,0,1-2.14,2.63,34.87,34.87,0,0,0-6.51,7.7c-7.82,12.92-12.12,27.15-15.81,41.64-.45,1.77-.21,2.81.95,3.9l7.57,7.11,7,5.86a45,45,0,0,0,.24,21.14c-.79,7.36-.62,14.83-1.48,22.11a114.22,114.22,0,0,0-.45,22.69c1.1,13.37,1.67,26.77,2.61,40.14C242.93,542.72,232.41,542.61,222.14,544Z"/><path class="cls-1" d="M711.8,232.15q.13,9.48.26,18.95c-.09,1-.19,2-.29,3l-262.82,0H407.06c-.92-4.74,1.75-9.28.78-14,.45-8,.45-8,8.78-8l95.31-.16c6.49,0,13,.15,19.48.16Z"/><path class="cls-11" d="M304,232.29c-3,8.59-8.54,15.65-14.24,22.5-16.17,19.4-37.3,32.38-58.82,44.8-1.54.89-2.78,2.44-4.76,2.52.75-17.85,1-35.69.83-53.55,0-2.49-.09-5-.13-7.46.51-9,.51-9,9.79-9Q270.31,232.19,304,232.29Z"/><path class="cls-7" d="M407.84,240.12c1,4.75-1.7,9.29-.78,14l-.26-.11h-6.66l-.26.11c.07-1.69.14-3.38.22-5.08C402.52,246,404,242,407.84,240.12Z"/><path class="cls-12" d="M715.77,401.09c0,.16.06.33.07.49.37,17.55.88,35.1,1.06,52.66.21,20.55,1,41.09,1.34,61.63.2,11.06.48,22.14.53,33.22H687.7a53.8,53.8,0,0,0,32,14.94q.06,7.41.11,14.82l-34.69-.05c0-3.78.82-7.55.88-11.25.31-18.49-.46-37,.87-55.47l.15-6.86c5-.05,10-.34,15-.07,4.13.22,5.85-1.77,5.95-5.42.16-5.82.19-11.64,0-17.45-.14-4.19-2.18-6.41-6.86-6.28-9.3.26-18.61.08-27.91.08-.06-6.42-.34-12.85-.08-19.25.14-3.28.49-7,4.88-7.88,2.42,1.39,6.06.22,7.51,3.84.46,1.16,1.5,2.61,3.51,1.81s2-2.27,2-4c0-5.17-2.68-8.05-10-10.53-2-7-3.55-14.23-6.26-21-3.4-8.43-4.91-17.1-5.62-26A251.75,251.75,0,0,0,715.77,401.09Z"/><path class="cls-10" d="M311.93,516A161.81,161.81,0,0,1,332,515c0,9.81.15,19.61,0,29.41-.05,3.3.7,4.74,4.38,4.66,10.79-.25,21.59-.14,32.39-.17,1.78,7.33,1,14.79,1.23,22.2.08,2.58-.83,5.33,1,7.71l-62.85.19c-1.11-7.27-4.78-14.27-2.22-21.91,0-1.29.07-2.58.1-3.88,2.9-1.5,4.5-7.71,3.14-12.21,1-3.84.05-8,1.09-11.63C311.48,524.92,309.73,520.23,311.93,516Z"/><path class="cls-12" d="M408.88,578.84l-34.76,0c-.61-22.25,1.66-44.46.75-66.7.05-2.3.11-4.59.16-6.88h26.89c-.56,9.84,1.22,19.59,1.09,29.42,0,1.35-.57,3.14,1.73,3.39l1.06,11.06c-5,0-9.93-.05-14.9,0-1.42,0-3.69-.09-1.89,2.33,5.24,7,11.23,13,20.73,13.61a6.07,6.07,0,0,1,1.15,4.9c-2.06,1.63-.33,4.38-1.83,6.18Z"/><path class="cls-10" d="M605.82,579l-60.86.06c-.34-1.25-.55-2.65-2.09-3-5.49-1.29-9-5.93-14-8.08a21.89,21.89,0,0,1-.77-9c5,.83,10.18,1,15,2.64a39,39,0,0,0,14.09,2.12c14.39-.63,27.07-6.56,38.77-14.7l8.76-.11.36,22.12A17,17,0,0,0,605.82,579Z"/><path class="cls-10" d="M222.14,544c10.27-1.41,20.79-1.3,30.69-5,.11.68.21,1.36.32,2-1.49,3.66.11,7.25.36,10.86.06,1,1.47,1.17,2.48,1.31a5.73,5.73,0,0,0,1.1,3.88c.9,7.59-1.51,14.7-3.22,21.91L222,578.9Q222.06,561.45,222.14,544Z"/><path class="cls-10" d="M499.89,578.94H453c-.07-1-.15-2-.23-2.92l-15.84-9,.15-3c20.66-.63,41.15-3.29,61.71-5,2,2.8,1.33,6.89,4.42,9.18a22.25,22.25,0,0,0-2.14,8.81Z"/><path class="cls-10" d="M293.87,579H268.1c-.3-6.81-1.79-13.66.86-20.34a4.16,4.16,0,0,0,0-1.49c1.52-1,.89-2.59,1-4,1.75-.21,4.08-.13,3.88-2.6-.28-3.61,1.81-6.94,1-10.54q1.15-5.54,2.32-11.06c2.59-.33,4.58-2,6.89-3a60.53,60.53,0,0,1,3.12,15c-.76,2.83,2.32,5.15,1.37,7.73-1.4,3.82.77,4.17,3.47,4.44a5.67,5.67,0,0,0,1.1,3.88C295.43,564.34,294.82,571.67,293.87,579Z"/><path class="cls-13" d="M647.82,571.09c-5.92,1.54-12,.71-18,1-2.07-5.23-.24-10.69-1-16a46,46,0,0,0,4-3.56C638.5,546.4,644,540.12,649.61,534c1.18-1.29,2.24-3,4.38-2.85,0,6.11-1.74,11.94-2.84,17.87Z"/><path class="cls-10" d="M647.82,571.09,651.15,549h17.59c.27,10,.74,20.07-.91,30-3.21.33-5.67-.56-8.41-2.7C656.15,573.79,651.13,574.19,647.82,571.09Z"/><path class="cls-5" d="M667.83,579c1.65-10,1.18-20,.91-30,.41-14.63-.16-29.29,1-43.9v-29c.05-6,.37-11.93.08-17.88a16.47,16.47,0,0,1,4.23-12.09l3.82,2.84c-4.39.89-4.74,4.6-4.88,7.88-.26,6.4,0,12.83.08,19.25v29l0,43.9c-.27,10-.74,20.07.91,30Z"/><path class="cls-5" d="M501.11,577a22.41,22.41,0,0,1,2.13-8.81c2.66,4.16,5.06-.61,7.61-.23,3.5.49,5.39,3.81,8.43,5.11,1.16-1.69.73-3.38,1-4.94,2.91,3,5.72.53,8.57-.16,5,2.15,8.53,6.79,14,8.08,1.54.36,1.75,1.76,2.09,3l-31.09,0C509.82,577.07,505.21,578.69,501.11,577Z"/><path class="cls-3" d="M374.87,512.1c.91,22.24-1.36,44.45-.75,66.7l-3.18,0c-1.8-2.38-.89-5.13-1-7.71-.22-7.41.55-14.87-1.23-22.2,1-11.3-1.07-22.55-.67-33.84C370.63,514.74,372.62,513.13,374.87,512.1Z"/><path class="cls-3" d="M686.84,512.08c-1.33,18.48-.56,37-.87,55.47-.06,3.7-.9,7.47-.88,11.25l-3.18,0-1.2-29.91c.17-11.28-1.64-22.53-.67-33.84Z"/><path class="cls-5" d="M293.87,579c.95-7.35,1.56-14.68-.78-21.91,4.26.77,8.52,1.75,12.78,0-2.56,7.64,1.11,14.64,2.22,21.91Z"/><path class="cls-5" d="M268.94,557.19a4.16,4.16,0,0,1,0,1.49c-2.65,6.68-1.16,13.53-.86,20.34H253.87c1.71-7.21,4.12-14.32,3.22-21.91C261,559.41,265,557.28,268.94,557.19Z"/><path class="cls-10" d="M680.71,548.92l1.2,29.91-7.86.19c-1.65-10-1.18-20-.91-30Z"/><path class="cls-5" d="M605.82,579a17,17,0,0,1-.72-7.92,82.59,82.59,0,0,0,18,.9c2.43,0,4.1,2.77,6.79,1.89a2.37,2.37,0,0,0,.3.39c1.89,1.6,6.59.62,5.89,3.8-.5,2.27-4.72.89-7.24.94C621.15,579.15,613.49,579,605.82,579Z"/><path class="cls-10" d="M629.87,573.88c-2.69.88-4.36-1.87-6.79-1.89,1.68-6.25,2.16-12.81,4.8-18.82.26,1-.39,2.32,1,3,.75,5.31-1.08,10.77,1,16C629.84,572.72,629.86,573.3,629.87,573.88Z"/><path class="cls-8" d="M452.81,576c.08,1,.16,2,.23,2.92l-44.16-.11.18-2.72c6.54.64,13.13,2.13,19.59,1.69A97.67,97.67,0,0,1,445,578C447.73,578.29,450.67,578.55,452.81,576Z"/><path class="cls-8" d="M501.11,577c4.1,1.68,8.71.06,12.76,2l-14-.09Z"/><path class="cls-1" d="M158,215c0,13.32-.11,26.64.06,40,.05,4.44-1.49,6.3-6.08,6.26q-27-.23-54,0c-4.59,0-6.09-1.82-6.07-6.26.11-26.81.15-53.62,0-80.44,0-5,2.31-6.36,6.6-6.35,17.65,0,35.31,0,53,0,5.51,0,6.51,1.16,6.51,6.83Q158,195,158,215Zm-31.5-30.83c-4.66,0-9.37.42-14-.1-6.45-.73-10.53,1.61-13.47,7.36-1.61,3.14-.82,6.13-1,9.17-.19,3.51,8.25,10.26,11.66,9.48,1.07-.24,2.72-.78,2.93-1.51,1.23-4.35,4.61-3.37,7.61-3.39,4.16,0,8.34.18,12.48-.15,1.66-.13,2.22-.28,2.34,1.63a3.62,3.62,0,0,0,3.58,3.47c2.18.18,4.17-.15,5.46-2.36.67-1.16,1-3,3.06-2.6,4.61.93,5.26-1.61,4.85-5.35-.22-2,.05-4-.06-6-.42-7.21-3-9.66-10-9.66Zm-17.3,64c4.92,0,5.69-1,3.79-5.35-.67-1.52-.48-2.21.85-2.47,1.12-.22,2.84-.9,3.09,1.21.17,1.49,0,3,.09,4.5,0,1,.07,2.06,1.5,2S119.86,247,120,246c.34-2.31-1.07-4.9,2.45-6.58,1.74-.83-.2-2.16-1.92-2.3-3.86-.3-7.68.94-11.59.11-2-.43-3,1-2.93,3,.07,1.27.84,2.9.3,3.74C103.25,248.85,107.21,247.8,109.2,248.12Zm.82-22.54c0,5.53,0,5.61,4.5,5.51,2.27,0,5.37,1,5.45-3,.13-5.84-1.46-7.55-5.82-8C109.08,219.49,110,222.7,110,225.58ZM128.88,248c4.48.8,6.18-1.76,6-5.57-.14-3.33-2.17-5.33-5.75-5.35a5.84,5.84,0,0,0-6.1,6.16C123.37,246.68,125,248.83,128.88,248Zm6.2-16.92c4.85,0,5.78-1.27,4.12-5.2-.28-.68-1.1-1-.56-2.07s2-2.91-.32-3.49c-1.95-.48-4.21-.93-6,.93-1.32,1.36-1.92,2.61-.43,4.23.34.37,1.16.72.56,1.56C129.24,231.58,133,230.9,135.08,231.12Zm1,11.07c0,1.75,0,3.08,0,4.41s1.71,1.83,1.89,1.36c1.07-2.81,4-2.16,5.59-3.43,1.75-1.41,2.85-4.31-.18-6.27a6.73,6.73,0,0,0-6.15-.94C134.83,238.31,136.51,240.84,136,242.19Zm-15-17.32c0,6.11.71,6.84,5.87,6.28,1.69-.19,3.08-.64,3-2.52,0-2.77.82-5.68-.65-8.25-.31-.55-2-.42-2.17,1-.14,1,.08,2-.14,3-.28,1.23,1,3.52-1.31,3.44-1.74-.07-1.7-2.14-1.65-3.68,0-.66,0-1.33,0-2,0-1.08-.21-2-1.61-1.93s-1.31,1.21-1.35,2.18S121,224,121,224.87Z"/><path class="cls-8" d="M1056.9,533.79A24.72,24.72,0,0,1,1081.39,509c14.64,0,25.61,10.82,25.58,25.23a25,25,0,0,1-25.07,24.86C1067.65,559.21,1056.18,547.18,1056.9,533.79Z"/><path class="cls-14" d="M715.77,401.09a251.75,251.75,0,0,1-46.66-8c-.73-4.68-1.57-9.34-2.16-14-1-7.9-3.34-14.6-12.16-17-2.37-.65-5.42-.09-7-2.8a9.82,9.82,0,0,1,2.48,0c5.74,1.4,8-.24,10-5.52,1.42-3.82-1.32-7-.43-10.57.2-5.36,1.12-10.89-3.69-15-4.78-5.54-10.86-6.19-17.37-4.27-8.46,2.51-10.91,13.36-4.17,19,1.76,1.46.92,2.91,1.53,4.26-.68,1.1-1.42,2.17-2,3.3-2.21,4.05-4.23,7.52-9.86,8.37-6.64,1-12.91,4-15.42,11.32-16.1-7.74-31.6-16.54-46.87-25.82-6.61-4-12.42-9.34-19.76-12.15-.45-3-.89-5.95-1.34-8.93,2.24-3.15,5.41-5.58,6.45-9.66,1.21-4.76-.27-7.1-5.23-7.39a25.24,25.24,0,0,0-11,2,27.21,27.21,0,0,0-6.37-4c-6-2.69-11.15.74-16.6,2.08a141,141,0,0,1-15.28-11.72c-10.56-8.95-21.29-17.7-31.61-26.91-4.48-4-9.55-7.66-12.23-13.38l262.82,0c1.18,1.36,1.22,3,1.18,4.68-.72,26.42.85,52.82,1.29,79.23.25,15.42,0,30.87.87,46.27C715.43,389.89,716,395.46,715.77,401.09Z"/><path class="cls-1" d="M719.67,564a53.8,53.8,0,0,1-32-14.94h31.07C719.5,554,718,559.13,719.67,564Z"/><path class="cls-1" d="M69.77,571a1.29,1.29,0,0,1-.19.41s-.23-.07-.36-.11l.29-.68Z"/><path class="cls-12" d="M368.07,515.08c-.4,11.29,1.69,22.54.67,33.84-10.8,0-21.6-.08-32.39.17-3.68.08-4.43-1.36-4.38-4.66.16-9.8,0-19.6,0-29.41V260.65c0-6.52,0-6.53,6.42-6.53l61.48,0,.26-.11c.26,23.24-.8,46.47.67,69.72,1,15.74.38,31.57.49,47.37v2a1.2,1.2,0,0,0-.19.92c-4.64,11.89-9.75,23.6-13.58,35.8-2.9,9.25-2.34,10.86,5.28,15.37-2.17,6.43-2.84,13.54-7.49,18.88-2.32,2.66-3.72,5.3-3.34,8.81-1.74,1.81-4.08,2.48-6.37,3.12-2.61.72-3.82,2.27-3.69,4.93a47.48,47.48,0,0,1-8.1,15.11c-4,0-8,0-12,0-3.28,0-4.88,1.55-4.87,4.84,0,6.31.07,12.63,0,18.95-.05,3.86,1.82,5.3,5.51,5.24,5.15-.08,10.31.06,15.46.11Z"/><path class="cls-15" d="M244.92,427.09,237.35,420c-1.16-1.09-1.4-2.13-.95-3.9,3.69-14.49,8-28.72,15.81-41.64a34.87,34.87,0,0,1,6.51-7.7,7.12,7.12,0,0,0,2.14-2.63c2.09-6.13,4.15-7.77,10.59-8,.5,0,1,0,1.5,0,.92,2.85-2.4,5.35-1.49,7.49,1.91,4.53,3.66,9.11,5.34,13.72.85,2.32,2.69,3.71,4.85,3.47,2.42-.27,4.67-1.51,5.18-4.52.29-1.76.52-3.82,1.56-5.12,4.27-5.29,2.46-10.62.62-16a26.54,26.54,0,0,1,12,4.19c1.39,1.92,1.29,4.21.88,6.25-1.77,8.73-.8,17.53-.85,26.29a29.49,29.49,0,0,0,7.42,19.85c-3.29-13.94-5.9-27.82-1-42.77,7.05,9.29,11,19.2,14.55,29.29,1.61,5.23,3.26,10.44,4.79,15.7a5.54,5.54,0,0,1-1.68,5.39c-2.26,2.36-4.25,5-7.17,6.69-2.9-3.21-7.59-3.88-10.36-7.37-.73-.91-2.24-.55-3.06.52-3,3.91-6,7.81-8.83,11.82-1.8,2.55.31,4.31,1.72,6s2.63.91,4.3,0c3-1.62,5.48-4.27,9-4.8a103.22,103.22,0,0,1,1.21,17.13c-.06,2.89-.5,5.48-2.24,7.81l-2.87.15c-17,.29-34,1.64-50.95-1.29a6.38,6.38,0,0,0-3.84-1.86,45,45,0,0,1-.24-21.14c4,.88,6.91,3.73,10.49,5.41,3.2,1.51,4.71-.67,6.32-2.18s.43-3.36-.88-4.7a85.9,85.9,0,0,1-8.41-10.32c-1.11-1.57-2.45-2.88-4.33-.69C252.35,423.65,248.49,425.16,244.92,427.09Zm44.84-50.75c-2.51,3.58-2.44,10.5,0,13.4ZM273.14,388.5c-.86-4,3.94-8.05,0-12.67Z"/><path class="cls-13" d="M252.15,454.09A6.38,6.38,0,0,1,256,456c2.38,2.61,5.64,3.51,8.85,4.07,14.24,2.48,28.25,1,42.1-2.78l2.87-.15c2,14.42,2.22,28.93,2.17,43.45q0,7.74-.05,15.48c-2.2,4.21-.45,8.9-1.73,13.37-1,3.62-.05,7.79-1.09,11.63a51.78,51.78,0,0,0-22,0A60.53,60.53,0,0,0,284,526c-.51-6.11-2.63-12-2.95-18.24q-2,10.63-3.94,21.26-1.15,5.54-2.32,11.06c-7.21.53-14.53-1.22-21.67,1-.11-.67-.21-1.35-.32-2-.94-13.37-1.51-26.77-2.61-40.14a114.22,114.22,0,0,1,.45-22.69C251.53,468.92,251.36,461.45,252.15,454.09Z"/><path class="cls-16" d="M289,355.06c1.84,5.42,3.65,10.75-.62,16-1,1.3-1.27,3.36-1.56,5.12-.51,3-2.76,4.25-5.18,4.52-2.16.24-4-1.15-4.85-3.47-1.68-4.61-3.43-9.19-5.34-13.72-.91-2.14,2.41-4.64,1.49-7.49,1.42-5.5-3.82-9.63-3.1-15,3.33-9.28,4.64-10.49,12.57-8.81,3.7.78,7,.92,10.7-1v8.82c-.11,3.33-.53,6.54-2.72,9.32A7.53,7.53,0,0,0,289,355.06Z"/><path class="cls-3" d="M322.08,398.16c-3.57-10.09-7.5-20-14.55-29.29-4.95,14.95-2.34,28.83,1,42.77a29.49,29.49,0,0,1-7.42-19.85c.05-8.76-.92-17.56.85-26.29.41-2,.51-4.33-.88-6.25,3.3-2,5.79-1.44,8.41,1.63,3.62,4.25,7.52,8.38,12.69,10.86,4.73,2.27,5.57,6.37,4.73,10.77C325.84,387.86,325.06,393.37,322.08,398.16Z"/><path class="cls-5" d="M293.12,340.08v-8.82c-3.74,1.93-7,1.79-10.7,1-7.93-1.68-9.24-.47-12.57,8.81-1.73-5.27-4.33-10.33-1.88-16.22a8.69,8.69,0,0,1,6.92-5.48c5.5-.78,11.34-1.42,16.54,1.07a7.58,7.58,0,0,1,4.46,8.58C295.08,332.73,294.92,336.62,293.12,340.08Z"/><path class="cls-16" d="M244.92,427.09c3.57-1.93,7.43-3.44,10.18-6.62,1.88-2.19,3.22-.88,4.33.69a85.9,85.9,0,0,0,8.41,10.32c1.31,1.34,2.53,3.15.88,4.7s-3.12,3.69-6.32,2.18c-3.58-1.68-6.53-4.53-10.49-5.41Z"/><path class="cls-16" d="M310.84,432.15c-3.57.53-6,3.18-9,4.8-1.67.9-3,1.64-4.3,0s-3.52-3.48-1.72-6c2.84-4,5.85-7.91,8.83-11.82.82-1.07,2.33-1.43,3.06-.52,2.77,3.49,7.46,4.16,10.36,7.37C315.85,428.27,312.48,429.2,310.84,432.15Z"/><path class="cls-12" d="M449,254.15c2.68,5.72,7.75,9.38,12.23,13.38,10.32,9.21,21.05,18,31.61,26.91a141,141,0,0,0,15.28,11.72c-5.38,5.24-5.66,11.38-3.22,18-1.66,2.39-3.79,4.6-4.85,7.23-1.24,3.1-3.3,7,1.95,8.89a76.41,76.41,0,0,1-5.21,14.54A53.33,53.33,0,0,0,492.11,376c-4.55,12-9.84,23.79-13.58,36.12-1.88,6.21-.8,9.89,3.54,12.86-.89,3.95-2.34,7.56-5.65,10.18-1.69,1.34-1.77,3.49-2.33,5.35-.33,1.08-.14,2.81,1.5,2.39,3.28-.83,7.52-1.5,8.12-5.33.67-4.27,3.24-7.1,5.34-10.38l5,.05c-.11,1.8.18,5-.39,5.2-6.95,1.9-3.8,8.18-5.59,12.22-2.4,5.42-1.38,9.32,5,10.66q-2.11,10.35-4.22,20.71c-11.41,0-22.82.07-34.23,0-1.36,0-4.23.82-3.4-1.91,1.49-4.88,1.19-10,2.75-14.83,2.92-1.43,4.11-3.87,4-7-.29-11.58-.65-23.15-4.83-34.18,5.67-.87,7.07-5.6,8.95-9.9,1.88-.06,2.77-1.59,4-2.67,5-4.54,9-9.87,13-15.24a3,3,0,0,0,3.12-3.12c5-4.1,2.31-8.62.7-13.08.29-2.44-1.17-3.05-3.2-3l-6.74.11c-3.79,2.59-3.49,6.65-2.91,10.2,1.18,7.12-1.07,11.76-8.08,13.88-4.59.58-5.54-2.07-6.05-6a156.06,156.06,0,0,1-.93-20.15c0-1.08.4-2.37-.93-3.08l.06.08c-.28-8.48-1.89-10.26-10.08-11.17-2.59-2.36-4.44-7.11-2.38-8.26,6.35-3.56,4.77-9.45,6.07-14.53,3.08-6.31,1.44-12.57-3.32-16.38-6.4-5.12-13.36-2.47-20.14-2.23-1.6.06-3.09,1.65-4.2,3.21-4.45,6.23-5.3,13.52-6,20.79-.4,4.29,2.11,6.51,6.39,6.57,2.16,0,4.32-.09,6.48-.15l.09,2.32c-3.52,1.09-2.13,5-4,7-5.9,1-13.13-1.19-16.06,6.8l-.17-106,.26.11Z"/><path class="cls-16" d="M406.8,254q.09,53,.17,106c-1.79,3.74-1.74,8.42-5.67,11.07-.11-15.8.51-31.63-.49-47.37-1.47-23.25-.41-46.48-.67-69.72Z"/><path class="cls-2" d="M608.78,370.05c2.51-7.34,8.78-10.33,15.42-11.32,5.63-.85,7.65-4.32,9.86-8.37.62-1.13,1.36-2.2,2-3.3a15.58,15.58,0,0,0,11.66,12.18c1.61,2.71,4.66,2.15,7,2.8,8.82,2.42,11.18,9.12,12.16,17,.59,4.69,1.43,9.35,2.16,14,.71,8.92,2.22,17.59,5.62,26,2.71,6.73,4.22,13.95,6.26,21-2,1.89-4.52,2.25-7.16,2.11-6.22-6-10.22-13.42-14-21,3.33-6.31,2.22-12.82,1-19.37-1.63,4.34-3.77,8.45-3.87,13.13-2.1,4.49-3.1,8.94-1.27,13.94a28.37,28.37,0,0,1,1.08,13.22c-5.06,2.31-10.5,1.86-15.83,2.16l-13-.33c-.05-20.87-2.25-36.75-6.08-43.2a24.28,24.28,0,0,0-4,12.63c-.39,10,1.28,19.88,1.15,29.84-.08.64-.15,1.28-.23,1.92a16.4,16.4,0,0,1-9.69,1.91c-4.82-12.61-8.57-25.72-7.85-39.15A143.46,143.46,0,0,1,608.78,370.05Z"/><path class="cls-7" d="M673.11,505.08v-29c9.3,0,18.61.18,27.91-.08,4.68-.13,6.72,2.09,6.86,6.28.2,5.81.17,11.63,0,17.45-.1,3.65-1.82,5.64-5.95,5.42-5-.27-10,0-14.94.07-2.71,0-5.41,0-8.12,0Z"/><path class="cls-16" d="M673.83,442.18c2.64.14,5.12-.22,7.16-2.11,7.29,2.48,10,5.36,10,10.53,0,1.73,0,3.22-2,4s-3-.65-3.51-1.81c-1.45-3.62-5.09-2.45-7.51-3.84l-3.82-2.84C674,444.8,673.91,443.49,673.83,442.18Z"/><path class="cls-15" d="M678.88,505.22c2.71,0,5.41,0,8.12,0-.06,2.29-.11,4.57-.16,6.86l-6.8,3C679.31,511.83,678.52,508.59,678.88,505.22Z"/><path class="cls-5" d="M287.15,541.06a51.78,51.78,0,0,1,22,0c1.36,4.5-.24,10.71-3.14,12.21H292c-2.7-.27-4.87-.62-3.47-4.44C289.47,546.21,286.39,543.89,287.15,541.06Z"/><path class="cls-16" d="M292,553.23h14c0,1.3-.06,2.59-.1,3.88-4.26,1.75-8.52.77-12.78,0A5.67,5.67,0,0,1,292,553.23Z"/><path class="cls-13" d="M410.89,569.94a6.07,6.07,0,0,0-1.15-4.9q-2-8-3.94-15.95-.53-5.52-1.06-11.06.64-9,1.3-18c1.47-5,4.44-9.56,4.76-14.94q-1.91-13.47-3.82-26.95c10,1.67,20.07,2.48,30-.34l-.07.42c-1.75,2.34-.89,5.17-1.36,7.75-1.94,10.58-4.25,20.94-8.22,31.09-3.84,9.81-3.92,20.7-5.35,31.17q-1,8.4-1.9,16.81c-.05.67-.09,1.35-.13,2C417.94,571.11,414.85,571.91,410.89,569.94Z"/><path class="cls-7" d="M407,478.13q1.92,13.47,3.82,26.95l-4.78.14h-38.1c-5.15-.05-10.31-.19-15.46-.11-3.69.06-5.56-1.38-5.51-5.24.09-6.32,0-12.64,0-18.95,0-3.29,1.59-4.87,4.87-4.84,4,0,8,0,12,0-.75,1.64-1.83,3.21-2.16,4.92-.73,3.72-2.73,9.25,1.29,10.64,9,3.12,18.38,5.69,28.06,6.27,4,2.64,6.87.18,8.28-2.9,2.7-5.87,3.87-12.19,1.92-18.67l5.75-.06Z"/><path class="cls-5" d="M410.89,569.94c4,2,7.05,1.17,9.11-2.88,2.06,1.24,4.18,2.38,6.15,3.75,3,2.11,1.25-1.2,2-1.67,4.49,2.91,6,2.56,8.85-2.07h0l15.84,9c-2.14,2.52-5.08,2.26-7.84,2a97.67,97.67,0,0,0-16.32-.2c-6.46.44-13-1-19.59-1.69C410.56,574.32,408.83,571.57,410.89,569.94Z"/><path class="cls-1" d="M405.8,549.09q2,8,3.94,15.95c-9.5-.58-15.49-6.59-20.73-13.61-1.8-2.42.47-2.32,1.89-2.33C395.87,549,400.84,549.09,405.8,549.09Z"/><path class="cls-16" d="M401.92,505.22H406q0,7.39,0,14.8-.66,9-1.3,18c-2.3-.25-1.74-2-1.73-3.39C403.14,524.81,401.36,515.06,401.92,505.22Z"/><path class="cls-15" d="M367.92,505.22H375c0,2.29-.11,4.58-.16,6.88-2.25,1-4.24,2.64-6.8,3Z"/><path class="cls-13" d="M628,443.92l13,.33c.1,15.92-1.14,31.77-1.79,47.65-.52,12.7-3.06,24.87-6,37.08-1.93,8-3.53,16.13-5.27,24.19-2.64,6-3.12,12.57-4.8,18.82a82.59,82.59,0,0,1-18-.9L604.74,549a15.79,15.79,0,0,0,1.23-7.23c-.15-4.45.93-8.77,1.71-13.12,1.39-7.84,2.74-15.69,4.1-23.54.39-3.61-.48-7.21-1.06-10.62-1.05-6.12.34-12.45-1.94-18.38l.31-24c1.57,1.09.71,2.71.83,4.08.34,4,2,4.85,5.37,2.78,4.14-2.51,5.72-8.76,3.49-13.86.08-.64.15-1.28.23-1.92C622,443.07,624.87,444.89,628,443.92Z"/><path class="cls-12" d="M611.78,505.08c-1.36,7.85-2.71,15.7-4.1,23.54-.78,4.35-1.86,8.67-1.71,13.12a15.86,15.86,0,0,1-1.23,7.24l-8.76.1H527.11l-.3-3.07c4-1.67,8.54-1.17,12.61-2.87,2.24-.95,3.52-2.11,3.55-4.64.13-11.15,1.11-22.25,2.09-33.35Z"/><path class="cls-1" d="M527.11,549.08H596c-11.7,8.14-24.38,14.07-38.77,14.7a39,39,0,0,1-14.09-2.12c-4.86-1.68-10-1.81-15-2.64C528.4,555.65,526.33,552.5,527.11,549.08Z"/><path class="cls-16" d="M527.11,549.08c-.78,3.42,1.29,6.57,1,9.94a21.89,21.89,0,0,0,.77,9c-2.85.69-5.66,3.13-8.57.16-1.84-2.78-2.34-6.06-3.44-9.12-1.68-2.85-1.1-6.6-3.6-9.44-.76,3.34.49,6.56-1.16,9.44.22,3.07-.72,6-1.23,9-2.55-.38-5,4.39-7.61.23-3.08-2.29-2.39-6.38-4.4-9.18q-1-5-2-9.93c.1-1.36.19-2.72.29-4.07,9.9.56,19.78,1.56,29.71,1Z"/><path class="cls-5" d="M253.15,541.06c7.14-2.19,14.46-.44,21.67-1,.85,3.6-1.24,6.93-1,10.54.2,2.47-2.13,2.39-3.88,2.6H256c-1-.14-2.42-.36-2.48-1.31C253.26,548.31,251.66,544.72,253.15,541.06Z"/><path class="cls-16" d="M256,553.23h14c-.15,1.37.48,2.95-1,4-3.95.09-7.91,2.22-11.85-.08A5.73,5.73,0,0,1,256,553.23Z"/><path class="cls-5" d="M422,548.22c1.43-10.47,1.51-21.36,5.35-31.17,4-10.15,6.28-20.51,8.22-31.09.47-2.58-.39-5.41,1.36-7.75,3-.07,6,0,9-.24,3.8-.37,4.74,1.31,3.77,4.63q-3.26,11.25-6.56,22.48c-5,14.24-7.78,28.85-7,44-.66,5,.06,10,1,14.94l-.15,3h0c-2.7.51-5.37,3-8.11.09-1-.38-.8-1.37-1-2.14Q424.92,556.62,422,548.22Z"/><path class="cls-1" d="M437.12,564c-.93-4.94-1.65-9.89-1-14.94h60.68q1,5,2,9.93C478.27,560.74,457.78,563.4,437.12,564Z"/><path class="cls-1" d="M277.14,529q2-10.62,3.94-21.26C281.4,514,283.52,519.9,284,526,281.72,527,279.73,528.7,277.14,529Z"/><path class="cls-5" d="M627.88,553.17c1.74-8.06,3.34-16.17,5.27-24.19,3-12.21,5.49-24.38,6-37.08.65-15.88,1.89-31.73,1.79-47.65,5.33-.3,10.77.15,15.83-2.16q.66,17,1.33,34v29c0,8.15-2.3,16-3.33,24a2.06,2.06,0,0,0-.81,2h0c-2.14-.11-3.2,1.56-4.38,2.85-5.61,6.17-11.11,12.45-16.72,18.63a46,46,0,0,1-4,3.56C627.49,555.49,628.14,554.18,627.88,553.17Z"/><path class="cls-12" d="M654.78,529.08c1-8,3.31-15.85,3.33-24h11.67c-1.2,14.61-.63,29.27-1,43.9H651.15c1.1-5.93,2.89-11.76,2.84-17.87h0C655.1,530.78,655,529.93,654.78,529.08Z"/><path class="cls-12" d="M658.11,476.08q-.68-17-1.33-34a28.37,28.37,0,0,0-1.08-13.22c-1.83-5-.83-9.45,1.27-13.94,1.72,1.73.59,4.76,2.86,6.24,3.78,7.59,7.78,15,14,21,.08,1.31.17,2.62.26,3.93a16.47,16.47,0,0,0-4.23,12.09c.29,5.95,0,11.92-.08,17.88Z"/><path class="cls-7" d="M658.11,476.08h11.67v29H658.11Z"/><path class="cls-12" d="M678.88,505.22c-.36,3.37.43,6.61,1.16,9.86-1,11.31.84,22.56.67,33.84l-7.57.06,0-43.9Z"/><path class="cls-10" d="M516.84,559c1.1,3.06,1.6,6.34,3.44,9.12-.27,1.56.16,3.25-1,4.94-3-1.3-4.93-4.62-8.43-5.11.51-3,1.45-5.88,1.23-9Z"/><path class="cls-3" d="M126.5,184.13H142c7,0,9.57,2.45,10,9.66.11,2-.16,4,.06,6,.41,3.74-.24,6.28-4.85,5.35-2.11-.42-2.39,1.44-3.06,2.6-1.29,2.21-3.28,2.54-5.46,2.36a3.62,3.62,0,0,1-3.58-3.47c-.12-1.91-.68-1.76-2.34-1.63-4.14.33-8.32.11-12.48.15-3,0-6.38-1-7.61,3.39-.21.73-1.86,1.27-2.93,1.51-3.41.78-11.85-6-11.66-9.48.16-3-.63-6,1-9.17,2.94-5.75,7-8.09,13.47-7.36C117.13,184.55,121.84,184.13,126.5,184.13Zm2.86,9c2.29.26,3.56-.63,3.67-3.3.17-3.92-2.67-2.49-4.49-2.62s-4.56-.47-4.39,2.48C124.32,192.44,126.56,193.37,129.36,193.1Zm11.42-6c-1.86.29-4.83-.66-4.62,2.72.15,2.43,2.19,3.38,4.69,3.37s4.14-.45,4.2-3.51C145.11,186.12,142.61,187.42,140.78,187.08Zm-23.83,0c-1.78.22-4.12-.79-4,2.63.1,3,1.69,3.41,4.13,3.44,2.59,0,3.94-.75,4-3.61C121.07,186.08,118.56,187.46,117,187.1Zm-8,3c-.31-1,.74-2.94-1.49-2.83s-3.24,2-3.88,3.86c-.54,1.61.7,1.88,1.86,2C107.65,193.32,109,192.49,109,190.06Z"/><path class="cls-3" d="M109.2,248.12c-2-.32-6,.73-2.88-4.12.54-.84-.23-2.47-.3-3.74-.11-2,.94-3.48,2.93-3,3.91.83,7.73-.41,11.59-.11,1.72.14,3.66,1.47,1.92,2.3-3.52,1.68-2.11,4.27-2.45,6.58-.15,1-.06,2.06-1.49,2.07s-1.48-1-1.5-2c0-1.5.08-3-.09-4.5-.25-2.11-2-1.43-3.09-1.21-1.33.26-1.52.95-.85,2.47C114.89,247.09,114.12,248.09,109.2,248.12Z"/><path class="cls-3" d="M110,225.58c0-2.88-.94-6.09,4.13-5.55,4.36.47,5.95,2.18,5.82,8-.08,4-3.18,3-5.45,3C110,231.19,110,231.11,110,225.58Z"/><path class="cls-3" d="M128.88,248c-3.84.79-5.51-1.36-5.82-4.76a5.84,5.84,0,0,1,6.1-6.16c3.58,0,5.61,2,5.75,5.35C135.06,246.28,133.36,248.84,128.88,248Zm2.1-5c.07-1.47-.5-2.72-2-2.76a2,2,0,0,0-1.91,2.35,2.32,2.32,0,0,0,2.49,2.4C131,245.11,131,244.09,131,243.08Z"/><path class="cls-3" d="M135.08,231.12c-2.11-.22-5.84.46-2.64-4,.6-.84-.22-1.19-.56-1.56-1.49-1.62-.89-2.87.43-4.23,1.8-1.86,4.06-1.41,6-.93,2.31.58.89,2.37.32,3.49s.28,1.39.56,2.07C140.86,229.85,139.93,231.12,135.08,231.12Z"/><path class="cls-3" d="M136,242.19c.47-1.35-1.21-3.88,1.15-4.87a6.73,6.73,0,0,1,6.15.94c3,2,1.93,4.86.18,6.27-1.57,1.27-4.52.62-5.59,3.43-.18.47-1.88,0-1.89-1.36S136,243.94,136,242.19Z"/><path class="cls-3" d="M121,224.87c0-.83,0-1.66,0-2.49s-.1-2.08,1.35-2.18,1.6.85,1.61,1.93c0,.66,0,1.33,0,2,0,1.54-.09,3.61,1.65,3.68,2.33.08,1-2.21,1.31-3.44.22-1,0-2,.14-3,.19-1.42,1.86-1.55,2.17-1,1.47,2.57.6,5.48.65,8.25,0,1.88-1.36,2.33-3,2.52C121.71,231.71,121,231,121,224.87Z"/><path class="cls-12" d="M609.09,452.11q-.17,12-.31,24L546.06,476c1.14-2.63.87-5.41.89-8.16q.09-9.87.16-19.73a6.64,6.64,0,0,0,1.85-3.89,170.63,170.63,0,0,0,.92-25.17c3.21-1.71,4.52-4.15,4.27-8a127.08,127.08,0,0,0-1.86-14.56c-1.56-8.48-3-17-4.44-25.49.6-4.49-.41-8.87-1.55-13.09-2.3-8.5-5.89-16.73-4.15-25.86,7.34,2.81,13.15,8.13,19.76,12.15,15.27,9.28,30.77,18.08,46.87,25.82a143.46,143.46,0,0,0-7.54,37.82c-.72,13.43,3,26.54,7.85,39.15Z"/><path class="cls-15" d="M542.15,332.08c-1.74,9.13,1.85,17.36,4.15,25.86,1.14,4.22,2.15,8.6,1.55,13.09-2.78-3.53-.45-8.68-3.82-12-2.39-1.94-5.3-2.39-8.18-3.08-2.05-.48-4.26-1.45-3.91-4.32.22-1.82-1.21-4.71,1.19-5.22,3.46-.72,3.63-3.4,4.75-5.62,3.16-6.26-1.67-11.26-2.89-16.79-.46-2.1-2.29-1.81-3,.67-1.35,4.41-4.44,7.65-7.73,10.72-.82.76-1.84,1.08-2.62.34-.26-.25.39-1.47.63-2.25.46-.21,1.43-.25,1-.93s-1-.06-1.31.53c-4.55-.61-4.63,2.69-3.77,5.27,1.54,4.65-.39,8.68-1.31,12.89-.4,1.84-1.5,3.33-3.82,3l-4.12,1a10,10,0,0,0-6,1.84c-2.06,0-2.73,1.53-3.42,3-1.84,4-3.65,8-5.47,12-.63,1.31-1.25,2.62-1.88,3.92a53.33,53.33,0,0,1,4.63-21.15A76.41,76.41,0,0,0,502,340.3a21.08,21.08,0,0,0,7.45-8.1c4.9-8.9,12.88-13.71,22.12-16.7,3-1,6.38-1.31,6.62,3.74a4.59,4.59,0,0,0,2.67,3.91C541.26,326.13,541.7,329.11,542.15,332.08Z"/><path class="cls-13" d="M647.76,359.24a15.58,15.58,0,0,1-11.66-12.18c-.61-1.35.23-2.8-1.53-4.26-6.74-5.6-4.29-16.45,4.17-19,6.51-1.92,12.59-1.27,17.37,4.27-1.14,2-2.27.26-3.31-.09a17.54,17.54,0,0,0-11.47-.09c-3.46,1.15-4,3-1.54,5.44,2.94,2.92,3.11,5.56,0,8.4-1.07,1-.84,1.47.48,2.52,4.23,3.36,15.58,3.44,19.5-1.16-.89,3.53,1.85,6.75.43,10.57-2,5.28-4.25,6.92-10,5.52A9.82,9.82,0,0,0,647.76,359.24Z"/><path class="cls-13" d="M540.81,323.15a4.59,4.59,0,0,1-2.67-3.91c-.24-5.05-3.63-4.71-6.62-3.74-9.24,3-17.22,7.8-22.12,16.7a21.08,21.08,0,0,1-7.45,8.1c-5.25-1.92-3.19-5.79-1.95-8.89,1.06-2.63,3.19-4.84,4.85-7.23,8-6.6,16.27-12.69,26.19-16.11a25.24,25.24,0,0,1,11-2c5,.29,6.44,2.63,5.23,7.39C546.22,317.57,543.05,320,540.81,323.15Z"/><path class="cls-16" d="M659.8,343.13c-3.92,4.6-15.27,4.52-19.5,1.16-1.32-1.05-1.55-1.53-.48-2.52,3.08-2.84,2.91-5.48,0-8.4-2.46-2.45-1.92-4.29,1.54-5.44a17.54,17.54,0,0,1,11.47.09c1,.35,2.17,2.08,3.31.09C660.92,332.24,660,337.77,659.8,343.13Z"/><path class="cls-5" d="M531,308.07c-9.92,3.42-18.22,9.51-26.19,16.11-2.44-6.64-2.16-12.78,3.22-18,5.45-1.34,10.59-4.77,16.6-2.08A27.21,27.21,0,0,1,531,308.07Z"/><path class="cls-2" d="M401.3,371.13c3.93-2.65,3.88-7.33,5.67-11.07,2.93-8,10.16-5.83,16.06-6.8,3.57,3.61,8,4.91,13,4.83.93,0,2.23.27,2.45-1a2.45,2.45,0,0,0-1.1-2c-4.14-2.16-6-7-10.33-8.85l-.09-2.32c.32-3.15-.42-6.18-.89-9.27-.65-4.25,3.18-2.27,4.87-2.82,1.95-.63.57,1,.44,1.63-.31.44-1.41.64-.78,1.34.48.52,1.2.1,1.48-.64,4.72-1.53,5.89-6,8.21-9.6.71-1.1-.12-3.62,2.07-3.23,1.69.3,2.38,2.38,2.52,3.87.25,2.68.57,5.15,2.85,6.91-1.3,5.08.28,11-6.07,14.53-2.06,1.15-.21,5.9,2.38,8.26l10.08,11.17L454,366c.3,12.82-.36,25.57-3.07,38.15a33.21,33.21,0,0,1-4.15,1.5c-5.86,1.3-11.64,4-17.8,1.34,3-11.21-.37-20.87-7.28-29.64-2.07-2.63-3.73-2.49-4.66.9-2.07,7.49-3.87,15-4.06,22.86-1,8.73-3,17.15-7.19,24.95-4.35,0-8.72.32-13-.84-7.62-4.51-8.18-6.12-5.28-15.37,3.83-12.2,8.94-23.91,13.58-35.8.11-.08.32-.15.32-.23a3.35,3.35,0,0,0-.13-.69Z"/><path class="cls-13" d="M391,497.91c-9.68-.58-19.05-3.15-28.06-6.27-4-1.39-2-6.92-1.29-10.64.33-1.71,1.41-3.28,2.16-4.92a47.48,47.48,0,0,0,8.1-15.11c0,4.37,3.38,6.74,6.28,8.37,6.13,3.42,12.46,1.82,18.63-2.23.37,4.93.92,9.17.83,13.1C397.51,486.56,397.75,493.75,391,497.91Zm-2.4-11.81c2-.07,4.41,0,4.76-2,.4-2.27-2.13-1.84-3.58-2.25-.94-.26-2.06-1-2.8-.69-1.93.74-4.73-2.9-5.36.21-.42,2.08,2.86,3.64,5.24,4.48A7.44,7.44,0,0,0,388.6,486.1Zm-21.9-8.74c1.67,4.11,7.9,6.44,10.95,4.2,1.19-.88,1.5-2.06-.35-2.36C373.79,478.61,370.51,476.58,366.7,477.36Z"/><path class="cls-16" d="M392.8,425.23c4.28,1.16,8.65.88,13,.84.08,1.66.15,3.32.22,5-1.69,7.05-2.89,14.27-5.21,21.11-1.94,5.71.79,6.75,5.22,7.2-.79,5.7.94,11.26.92,16.91l-5.75.06a37,37,0,0,1-.18-5.94c.89-7.12-2.1-11.61-9-13.27-1.57-.38-1.63-3.33-3.35-2.09-3.46,2.49-4.84-.32-6.71-2.12-.38-3.51,1-6.15,3.34-8.81C390,438.77,390.63,431.66,392.8,425.23Z"/><path class="cls-5" d="M382,452.92c1.87,1.8,3.25,4.61,6.71,2.12,1.72-1.24,1.78,1.71,3.35,2.09,6.89,1.66,9.88,6.15,9,13.27a37,37,0,0,0,.18,5.94c1.95,6.48.78,12.8-1.92,18.67-1.41,3.08-4.26,5.54-8.28,2.9,6.75-4.16,6.51-11.35,6.65-17.7.09-3.93-.46-8.17-.83-13.1-6.17,4.05-12.5,5.65-18.63,2.23-2.9-1.63-6.31-4-6.28-8.37-.13-2.66,1.08-4.21,3.69-4.93C377.89,455.4,380.23,454.73,382,452.92Z"/><path class="cls-16" d="M401.29,373.14a3.35,3.35,0,0,1,.13.69c0,.08-.21.15-.32.23A1.2,1.2,0,0,1,401.29,373.14Z"/><path class="cls-5" d="M306.94,457.24c-13.85,3.75-27.86,5.26-42.1,2.78-3.21-.56-6.47-1.46-8.85-4.07C272.91,458.88,289.94,457.53,306.94,457.24Z"/><path class="cls-12" d="M289.76,376.34v13.4C287.32,386.84,287.25,379.92,289.76,376.34Z"/><path class="cls-12" d="M273.14,388.5V375.83C277.08,380.45,272.28,384.48,273.14,388.5Z"/><path class="cls-15" d="M547.11,448.12Q547,458,547,467.85c0,2.75.25,5.53-.89,8.16q-.51,14.57-1,29.14c-1,11.1-2,22.2-2.09,33.35,0,2.53-1.31,3.69-3.55,4.64-4.07,1.7-8.58,1.2-12.61,2.87-9.93.57-19.81-.43-29.71-1-2.75-1.6-5.91-1.38-8.88-1.88C478,541.42,478,541.54,479,531.46a4.13,4.13,0,0,1,0-.5q2.41-12.9,4.84-25.81,2.51-14.56,5-29.13,2.1-10.35,4.22-20.71a17.85,17.85,0,0,1,4.88.27c5.29,1,10.47,2.75,15.94,2.67,5.54,1.66,6.54,1.05,7.11-4.17.64-5.79,1.57-11.42,1.47-17.43-.14-9.1,1.5-18.33,1.7-27.56a42.49,42.49,0,0,0,13.43-2.37c3-1.08,4.44-1.59,4.61,2.71.14,3.63,1.88,7.19,2.92,10.79a41.37,41.37,0,0,1,1.91,15C546.83,439.51,547.06,443.82,547.11,448.12Z"/><path class="cls-2" d="M494,372.07c1.82-4,3.63-8,5.47-12,.69-1.5,1.36-3.06,3.42-3,2.55.27,4.52,2.55,7.28,2.07,8.39,15.66,11.35,32.59,11.82,50.12-5.15-.5-10-2.37-15-3.54l-1.7-3.48c-3.06,7.75-3.67,15.71-6.63,23-.55,1.35,1.43.63,2.33.34,2,.08,3.9.25,5.84.21,3.4-.06,4.05,1.39,2.51,4.21-2.74-3.13-5.14-2.42-7.32.66l-2.49,3.56c-3.21.15-4.52-.94-3-4.25,1.26-2.74-.43-3-2.55-2.7l-5-.05c-.72-.41-1.44-.82-2.17-1.22a27.19,27.19,0,0,1-1-7.31c-.08-12.18,3.27-23.74,6-35.42C492.8,379.57,495.56,376.19,494,372.07Z"/><path class="cls-13" d="M453.13,418.09c4.18,11,4.54,22.6,4.83,34.18.08,3.16-1.11,5.6-4,7-5.33,1-10.79,1.3-16,3.07A188.36,188.36,0,0,1,416,461c5-3.2,7.6-8,9-13.61,2.95-11.73,2.11-23.42,0-35.13,1,.08,1.92.15,2.88.25,8,.83,16,2.14,23-3.32Q452,413.64,453.13,418.09Z"/><path class="cls-7" d="M438,462.37c5.18-1.77,10.64-2.07,16-3.07-1.56,4.81-1.26,9.95-2.75,14.83-.83,2.73,2,1.9,3.4,1.91,11.41,0,22.82,0,34.23,0q-2.51,14.57-5,29.13l-40.68-.07q3.28-11.24,6.56-22.48c1-3.32,0-5-3.77-4.63-3,.28-6,.17-9,.24l.07-.42C436.47,472.6,438.66,467.57,438,462.37Z"/><path class="cls-6" d="M494,427.23c2.12-.29,3.81,0,2.55,2.7-1.51,3.31-.2,4.4,3,4.25,2.73,1.69,5.89,1.62,8.89,2.24,2.5.51,5,2,7.41-.19,1.6-.69,1.67-2.53,2.93-3.6a11.64,11.64,0,0,0-8.26-1.46L509.38,430c1.54-2.82.89-4.27-2.51-4.21-1.94,0-3.89-.13-5.84-.2,1.22-4.83,3.49-9.23,5.73-13.61,1.11-2.16,1.76-4.11.27-6.27,5,1.17,9.8,3,15,3.54-2.32,10.28-.4,21-3.92,31.29-1.94,5.67-1.74,12.06-4.21,17.75-5.47.08-10.65-1.65-15.94-2.67a17.85,17.85,0,0,0-4.88-.27c-6.38-1.34-7.4-5.24-5-10.66,1.79-4-1.36-10.32,5.59-12.22C494.19,432.27,493.9,429,494,427.23Z"/><path class="cls-5" d="M431.33,333.48c.13-.67,1.51-2.26-.44-1.63-1.69.55-5.52-1.43-4.87,2.82.47,3.09,1.21,6.12.89,9.27-2.16.06-4.32.18-6.48.15-4.28-.06-6.79-2.28-6.39-6.57.68-7.27,1.53-14.56,6-20.79,1.11-1.56,2.6-3.15,4.2-3.21,6.78-.24,13.74-2.89,20.14,2.23,4.76,3.81,6.4,10.07,3.32,16.38-2.28-1.76-2.6-4.23-2.85-6.91-.14-1.49-.83-3.57-2.52-3.87-2.19-.39-1.36,2.13-2.07,3.23-2.32,3.59-3.49,8.07-8.21,9.6A3.32,3.32,0,0,0,431.33,333.48Z"/><path class="cls-3" d="M453.13,418.09q-1.14-4.45-2.27-8.92c0-1.67.06-3.34.08-5,2.71-12.58,3.37-25.33,3.07-38.15,1.33.71.93,2,.93,3.08a156.06,156.06,0,0,0,.93,20.15c.51,3.93,1.46,6.58,6.05,6,2.49,4.29.3,8.63.16,12.95C460.2,412.49,458.8,417.22,453.13,418.09Z"/><path class="cls-3" d="M494,372.07c1.57,4.12-1.19,7.5-2.06,11.16-2.77,11.68-6.12,23.24-6,35.42a27.19,27.19,0,0,0,1,7.31c-1.78.55-3.18-.79-4.81-1-4.34-3-5.42-6.65-3.54-12.86,3.74-12.33,9-24.08,13.58-36.12C492.74,374.69,493.36,373.38,494,372.07Z"/><path class="cls-16" d="M462.08,408.19c.14-4.32,2.33-8.66-.16-12.95,7-2.12,9.26-6.76,8.08-13.88-.58-3.55-.88-7.61,2.91-10.2-1.83,2.35-1.06,5.11-1.09,7.69-.08,8.63,0,8.63,7.21,11.43-4,5.37-8,10.7-13,15.24C464.85,406.6,464,408.13,462.08,408.19Z"/><path class="cls-3" d="M479,390.28c-7.24-2.8-7.29-2.8-7.21-11.43,0-2.58-.74-5.34,1.09-7.69l6.74-.11c2,0,3.49.59,3.2,3-2.32-.52-5-1.79-6.35,1.31-1.25,2.83.05,5.13,2.55,6.63,2,1.21,3.17,2.76,3.1,5.14A3,3,0,0,1,479,390.28Z"/><path class="cls-16" d="M482.07,425c1.63.2,3,1.54,4.81,1,.73.4,1.45.81,2.17,1.22-2.1,3.28-4.67,6.11-5.34,10.38-.6,3.83-4.84,4.5-8.12,5.33-1.64.42-1.83-1.31-1.5-2.39.56-1.86.64-4,2.33-5.35C479.73,432.53,481.18,428.92,482.07,425Z"/><path class="cls-3" d="M427,346.26c4.35,1.89,6.19,6.69,10.33,8.85a2.45,2.45,0,0,1,1.1,2c-.22,1.26-1.52,1-2.45,1-4.94.08-9.38-1.22-13-4.83C424.87,351.22,423.48,347.35,427,346.26Z"/><path class="cls-16" d="M482.15,387.16c.07-2.38-1.09-3.93-3.1-5.14-2.5-1.5-3.8-3.8-2.55-6.63,1.38-3.1,4-1.83,6.35-1.31C484.46,378.54,487.11,383.06,482.15,387.16Z"/><path class="cls-3" d="M454.07,366.09,444,354.92C452.18,355.83,453.79,357.61,454.07,366.09Z"/><path class="cls-3" d="M628,443.92c-3.08,1-5.93-.85-8.94-.73.13-10-1.54-19.84-1.15-29.84a24.28,24.28,0,0,1,4-12.63C625.7,407.17,627.9,423.05,628,443.92Z"/><path class="cls-16" d="M609.09,452.11V447a16.4,16.4,0,0,0,9.69-1.91c2.23,5.1.65,11.35-3.49,13.86-3.42,2.07-5,1.2-5.37-2.78C609.8,454.82,610.66,453.2,609.09,452.11Z"/><path class="cls-3" d="M659.83,421.17c-2.27-1.48-1.14-4.51-2.86-6.24.1-4.68,2.24-8.79,3.87-13.13C662.05,408.35,663.16,414.86,659.83,421.17Z"/><path class="cls-2" d="M438,462.37c.7,5.2-1.49,10.23-.93,15.42-10,2.82-20,2-30,.34l0-1.85c0-5.65-1.71-11.21-.92-16.91L416,461A188.36,188.36,0,0,0,438,462.37Z"/><path class="cls-1" d="M422,548.22q2.88,8.4,5.78,16.8h-7.68Q421.08,556.62,422,548.22Z"/><path class="cls-12" d="M406,520q0-7.39,0-14.8l4.78-.14C410.48,510.46,407.51,515,406,520Z"/><path class="cls-10" d="M420.13,565h7.68c.24.77,0,1.76,1,2.14-.24.66-.49,1.32-.74,2-.71.47,1.07,3.78-2,1.67-2-1.37-4.09-2.51-6.15-3.75C420,566.38,420.08,565.7,420.13,565Z"/><path class="cls-8" d="M428.11,569.14c.25-.66.5-1.32.74-2,2.74,2.87,5.41.42,8.11-.09C434.08,571.7,432.6,572.05,428.11,569.14Z"/><path class="cls-7" d="M545.06,505.15q.5-14.58,1-29.14l62.72.07c2.28,5.93.89,12.26,1.94,18.38.58,3.41,1.45,7,1.06,10.62Z"/><path class="cls-12" d="M443.13,505.08l40.68.07Q481.4,518.05,479,531a4.13,4.13,0,0,0,0,.5c-1,10.08-.95,10,9.26,11.68,3,.5,6.13.28,8.88,1.88-.1,1.35-.19,2.71-.29,4.07H436.13C435.35,533.93,438.09,519.32,443.13,505.08Z"/><path class="cls-1" d="M516.84,559h-4.76c1.65-2.88.4-6.1,1.16-9.44C515.74,552.42,515.16,556.17,516.84,559Z"/><path class="cls-13" d="M654.78,529.08c.17.85.32,1.7-.81,2A2.06,2.06,0,0,1,654.78,529.08Z"/><path class="cls-1" d="M129.36,193.1c-2.8.27-5-.66-5.21-3.44-.17-2.95,2.47-2.63,4.39-2.48s4.66-1.3,4.49,2.62C132.92,192.47,131.65,193.36,129.36,193.1Z"/><path class="cls-1" d="M140.78,187.08c1.83.34,4.33-1,4.27,2.58-.06,3.06-1.7,3.5-4.2,3.51s-4.54-.94-4.69-3.37C136,186.42,138.92,187.37,140.78,187.08Z"/><path class="cls-1" d="M117,187.1c1.61.36,4.12-1,4.09,2.46,0,2.86-1.37,3.64-4,3.61-2.44,0-4-.46-4.13-3.44C112.83,186.31,115.17,187.32,117,187.1Z"/><path class="cls-1" d="M109,190.06c0,2.43-1.35,3.26-3.51,3-1.16-.12-2.4-.39-1.86-2,.64-1.89,1.6-3.74,3.88-3.86S108.69,189.05,109,190.06Z"/><path class="cls-1" d="M131,243.08c0,1,0,2-1.44,2a2.32,2.32,0,0,1-2.49-2.4,2,2,0,0,1,1.91-2.35C130.48,240.36,131.05,241.61,131,243.08Z"/><path class="cls-2" d="M545.09,420.22c-1-3.6-2.78-7.16-2.92-10.79-.17-4.3-1.63-3.79-4.61-2.71a42.49,42.49,0,0,1-13.43,2.37c-1-7.17.3-14.37-.89-21.63-1.43-8.69-4.53-16.85-6.48-25.35a12.44,12.44,0,0,1,3.42.25c8.56,3.08,16.33.81,23.85-3.35,3.37,3.34,1,8.49,3.82,12,1.47,8.5,2.88,17,4.44,25.49a127.08,127.08,0,0,1,1.86,14.56c.25,3.83-1.06,6.27-4.27,8Z"/><path class="cls-16" d="M545.09,420.22l4.79-1.16a170.63,170.63,0,0,1-.92,25.17,6.64,6.64,0,0,1-1.85,3.89c-.05-4.3-.28-8.61-.11-12.9A41.37,41.37,0,0,0,545.09,420.22Z"/><path class="cls-16" d="M544,359c-7.52,4.16-15.29,6.43-23.85,3.35a12.07,12.07,0,0,0-3.42-.24L513,354.18c2.32.37,3.42-1.12,3.82-3,.92-4.21,2.85-8.24,1.31-12.89-.86-2.58-.78-5.88,3.77-5.27a3.08,3.08,0,0,1,.3.41c-.24.77-.89,2-.63,2.24.78.74,1.8.42,2.62-.34,3.29-3.07,6.38-6.31,7.73-10.72.76-2.48,2.59-2.77,3-.67,1.22,5.53,6,10.53,2.89,16.79-1.12,2.22-1.29,4.9-4.75,5.62-2.4.51-1,3.4-1.19,5.22-.35,2.87,1.86,3.84,3.91,4.32C538.73,356.62,541.64,357.07,544,359Z"/><path class="cls-5" d="M513,354.18l3.74,7.94c2,8.49,5,16.65,6.48,25.34,1.19,7.26-.12,14.46.89,21.63-.2,9.23-1.84,18.46-1.7,27.56.1,6-.83,11.64-1.47,17.43-.57,5.22-1.57,5.83-7.11,4.17,2.47-5.69,2.27-12.08,4.21-17.75,3.52-10.27,1.6-21,3.92-31.29-.47-17.53-3.43-34.46-11.82-50.12l-1.26-3.91Z"/><path class="cls-16" d="M508.9,355.18l1.26,3.91c-2.76.48-4.73-1.8-7.28-2.07A10,10,0,0,1,508.9,355.18Z"/><path class="cls-16" d="M521.92,333.06c.29-.59.94-1.13,1.31-.53s-.55.72-1,.93A3.79,3.79,0,0,0,521.92,333.06Z"/><path class="cls-3" d="M413,401.12c.19-7.83,2-15.37,4.06-22.86.93-3.39,2.59-3.53,4.66-.9C428.62,386.13,432,395.79,429,407c-4.65.41-8.81-1.4-13.06-2.82C414.59,403.52,414.82,401.33,413,401.12Z"/><path class="cls-15" d="M415.93,404.19c4.25,1.42,8.41,3.23,13.06,2.82,6.16,2.65,11.94-.05,17.8-1.35a33.21,33.21,0,0,0,4.15-1.5c0,1.67-.05,3.34-.08,5-7.05,5.46-15.07,4.15-23,3.32-1-.1-1.92-.17-2.88-.25l-8.81-3.17C416.08,407.45,416,405.82,415.93,404.19Z"/><path class="cls-12" d="M415.93,404.19c.07,1.63.15,3.26.22,4.88l-10.13,22c-.07-1.67-.14-3.33-.22-5,4.2-7.8,6.23-16.22,7.19-24.95C414.82,401.33,414.59,403.52,415.93,404.19Z"/><path class="cls-5" d="M432,334.18c-.28.74-1,1.16-1.48.64-.63-.7.47-.9.78-1.34A3.32,3.32,0,0,1,432,334.18Z"/><path class="cls-5" d="M388.6,486.1a7.44,7.44,0,0,1-1.74-.22c-2.38-.84-5.66-2.4-5.24-4.48.63-3.11,3.43.53,5.36-.21.74-.28,1.86.43,2.8.69,1.45.41,4,0,3.58,2.25C393,486.11,390.62,486,388.6,486.1Z"/><path class="cls-5" d="M366.7,477.36c3.81-.78,7.09,1.25,10.6,1.84,1.85.3,1.54,1.48.35,2.36C374.6,483.8,368.37,481.47,366.7,477.36Z"/><path class="cls-5" d="M406,431.06l10.13-22,8.81,3.17c2.12,11.71,3,23.4,0,35.13-1.42,5.65-4,10.41-9,13.61L406,459.37c-4.43-.45-7.16-1.49-5.22-7.2C403.13,445.33,404.33,438.11,406,431.06Z"/><path class="cls-8" d="M509.38,430c.39.4.78.81,1.18,1.21,1.64,1.82,4.26,2.62,5.32,5.06-2.42,2.23-4.91.7-7.41.19-3-.62-6.16-.55-8.89-2.24q1.23-1.79,2.48-3.56C504.24,427.54,506.64,426.83,509.38,430Z"/><path class="cls-12" d="M507,405.67c1.49,2.16.84,4.11-.27,6.27-2.24,4.38-4.51,8.78-5.73,13.61-.9.28-2.88,1-2.33-.35,3-7.3,3.57-15.26,6.63-23Z"/><path class="cls-12" d="M515.88,436.23c-1.06-2.44-3.68-3.24-5.32-5.06a11.62,11.62,0,0,1,8.25,1.46C517.55,433.7,517.48,435.54,515.88,436.23Z"/></g></g></svg>